<svg width="23.200012" height="23.200012" viewBox="0 0 23.2 23.2" fill="none" xmlns="http://www.w3.org/2000/svg" xmlns:xlink="http://www.w3.org/1999/xlink">
	<desc>
			Created with Pixso.
	</desc>
	<defs/>
	<path d="M3.6 5.08L0 1.54L1.57 0L5.16 3.54L22.08 3.54C22.26 3.54 22.43 3.58 22.58 3.65C22.74 3.73 22.87 3.84 22.98 3.98C23.08 4.11 23.15 4.27 23.18 4.44C23.21 4.61 23.2 4.78 23.15 4.94L20.48 13.68C20.42 13.9 20.28 14.1 20.08 14.24C19.89 14.38 19.66 14.46 19.42 14.46L5.82 14.46L5.82 16.64L18.03 16.64L18.03 18.83L4.71 18.83C4.41 18.83 4.13 18.71 3.92 18.51C3.71 18.3 3.6 18.02 3.6 17.73L3.6 5.08ZM5.82 5.72L5.82 12.27L18.59 12.27L20.59 5.72L5.82 5.72ZM5.26 23.2C4.82 23.2 4.4 23.02 4.08 22.72C3.77 22.41 3.6 21.99 3.6 21.56C3.6 21.12 3.77 20.71 4.08 20.4C4.4 20.09 4.82 19.92 5.26 19.92C5.7 19.92 6.13 20.09 6.44 20.4C6.75 20.71 6.93 21.12 6.93 21.56C6.93 21.99 6.75 22.41 6.44 22.72C6.13 23.02 5.7 23.2 5.26 23.2ZM18.58 23.2C18.14 23.2 17.72 23.02 17.4 22.72C17.09 22.41 16.92 21.99 16.92 21.56C16.92 21.12 17.09 20.71 17.4 20.4C17.72 20.09 18.14 19.92 18.58 19.92C19.02 19.92 19.45 20.09 19.76 20.4C20.07 20.71 20.25 21.12 20.25 21.56C20.25 21.99 20.07 22.41 19.76 22.72C19.45 23.02 19.02 23.2 18.58 23.2Z" fill="#838383" fill-opacity="1.000000" fill-rule="nonzero"/>
</svg>
