<svg width="30.100006" height="20.640015" viewBox="0 0 30.1 20.64" fill="none" xmlns="http://www.w3.org/2000/svg" xmlns:xlink="http://www.w3.org/1999/xlink">
	<desc>
			Created with Pixso.
	</desc>
	<defs/>
	<path d="M0 2.83C0 1.8 0.57 1.24 1.72 1.16L6.15 1.19C6.45 1.19 6.65 1.34 6.75 1.64C7.2 3.17 7.71 4.49 8.28 5.6C8.84 6.71 9.58 7.98 10.49 9.43C10.57 9.61 10.7 9.7 10.88 9.7C11.02 9.7 11.13 9.63 11.21 9.49L11.3 9.15L11.33 3.87C11.33 3.51 11.24 3.26 11.07 3.14C10.91 3.02 10.59 2.93 10.14 2.87C9.78 2.8 9.6 2.58 9.6 2.19C9.6 2.11 9.61 2.05 9.63 2.01C10.05 0.69 11.24 0.03 13.2 0.03L14.87 0C15.62 0 16.24 0.19 16.74 0.58C17.24 0.96 17.48 1.57 17.48 2.41L17.48 9.34C17.62 9.44 17.75 9.49 17.87 9.49C18.17 9.49 18.43 9.31 18.64 8.94C20.83 5.81 22 3.71 22.18 2.65C22.18 2.63 22.2 2.58 22.24 2.5C22.38 2.19 22.61 1.93 22.93 1.7C23.24 1.48 23.52 1.33 23.76 1.25C23.84 1.21 23.93 1.19 24.03 1.19L28.64 1.19L28.94 1.22C29.33 1.22 29.64 1.41 29.86 1.8C29.94 1.92 29.99 2.05 30.02 2.19C30.05 2.34 30.07 2.48 30.08 2.62C30.09 2.76 30.1 2.84 30.1 2.87L30.1 3.08C29.96 3.91 29.6 4.8 29.04 5.75C28.47 6.7 27.76 7.72 26.88 8.82C26.01 9.92 25.47 10.64 25.25 10.99C25.07 11.23 24.98 11.45 24.98 11.66C24.98 11.82 25.06 12 25.22 12.21L29.56 17.83C29.8 18.15 29.92 18.51 29.92 18.89C29.92 19.36 29.74 19.75 29.38 20.05C29.02 20.36 28.6 20.53 28.1 20.57L27.6 20.6L23.08 20.6C23.06 20.6 23.02 20.61 22.96 20.62C22.9 20.63 22.86 20.64 22.84 20.64C22.4 20.64 22 20.44 21.62 20.05C21.48 19.89 20.55 18.69 18.82 16.45C18.72 16.31 18.58 16.18 18.41 16.06C18.33 16.38 18.22 16.85 18.09 17.46C17.96 18.07 17.87 18.51 17.81 18.77L17.72 19.29C17.52 20 17.11 20.43 16.47 20.57L16.06 20.6L13.14 20.6C11.5 20.6 9.85 19.83 8.22 18.28C6.58 16.74 5.11 14.74 3.8 12.28C2.49 9.83 1.27 6.98 0.14 3.72C0.04 3.46 0 3.16 0 2.83ZM17.87 10.74C17.45 10.74 17.08 10.63 16.74 10.39C16.4 10.16 16.23 9.84 16.23 9.43L16.23 2.41C16.23 2 16.14 1.71 15.94 1.54C15.74 1.36 15.39 1.28 14.9 1.28L13.2 1.34C12.35 1.34 11.7 1.49 11.27 1.8C12.14 2.22 12.58 2.92 12.58 3.87L12.58 9.25C12.54 9.76 12.34 10.18 11.98 10.51C11.62 10.85 11.23 11.02 10.79 11.02C10.2 11.02 9.74 10.72 9.42 10.13C7.88 7.73 6.73 5.45 5.97 3.29L5.71 2.5L1.75 2.47C1.49 2.47 1.35 2.48 1.32 2.51C1.29 2.54 1.27 2.63 1.27 2.77C1.27 2.96 1.29 3.15 1.33 3.35L1.96 5.06C3.62 9.48 5.43 12.96 7.39 15.51C9.34 18.05 11.26 19.32 13.14 19.32L16.12 19.32C16.23 19.32 16.32 19.29 16.38 19.22C16.44 19.14 16.49 19.01 16.53 18.8L16.59 18.5L17.16 15.81C17.32 15.44 17.45 15.2 17.57 15.08C17.79 14.85 18.05 14.74 18.35 14.74C18.82 14.74 19.31 15.04 19.8 15.63L22.33 18.93C22.49 19.19 22.66 19.32 22.84 19.32L27.75 19.32C28.34 19.32 28.64 19.17 28.64 18.86C28.64 18.76 28.61 18.66 28.55 18.56L24.24 13.03C23.9 12.61 23.73 12.15 23.73 11.66C23.73 11.17 23.89 10.7 24.21 10.25C24.46 9.85 24.96 9.17 25.71 8.22C26.45 7.28 27.1 6.39 27.66 5.57C28.21 4.74 28.58 3.99 28.76 3.32L28.85 2.93C28.83 2.89 28.82 2.82 28.82 2.73C28.82 2.64 28.81 2.56 28.79 2.5L24.12 2.5C23.82 2.62 23.58 2.8 23.4 3.05L23.22 3.63C22.73 5.03 21.43 7.2 19.33 10.13C18.91 10.54 18.43 10.74 17.87 10.74Z" fill="#101010" fill-opacity="1.000000" fill-rule="nonzero"/>
</svg>
