<svg width="18.166672" height="18.166626" viewBox="0 0 18.1667 18.1666" fill="none" xmlns="http://www.w3.org/2000/svg" xmlns:xlink="http://www.w3.org/1999/xlink">
	<desc>
			Created with Pixso.
	</desc>
	<defs/>
	<path id="Vector" d="M9.08 17.41C13.68 17.41 17.41 13.68 17.41 9.08C17.41 4.48 13.68 0.75 9.08 0.75C4.48 0.75 0.75 4.48 0.75 9.08C0.75 13.68 4.48 17.41 9.08 17.41Z" stroke="#838383" stroke-opacity="1.000000" stroke-width="1.500000" stroke-linejoin="round"/>
	<path id="Vector" d="M9.91 0.79C9.91 0.79 12.41 4.08 12.41 9.08C12.41 14.08 9.91 17.37 9.91 17.37" stroke="#838383" stroke-opacity="1.000000" stroke-width="1.500000" stroke-linejoin="round" stroke-linecap="round"/>
	<path id="Vector" d="M8.25 17.37C8.25 17.37 5.75 14.08 5.75 9.08C5.75 4.08 8.25 0.79 8.25 0.79" stroke="#838383" stroke-opacity="1.000000" stroke-width="1.500000" stroke-linejoin="round" stroke-linecap="round"/>
	<path id="Vector" d="M1.27 12L16.89 12" stroke="#838383" stroke-opacity="1.000000" stroke-width="1.500000" stroke-linejoin="round" stroke-linecap="round"/>
	<path id="Vector" d="M1.27 6.16L16.89 6.16" stroke="#838383" stroke-opacity="1.000000" stroke-width="1.500000" stroke-linejoin="round" stroke-linecap="round"/>
</svg>
